# xmcd
# Track frame offsets:
# 150
# 13565
# 28116
# 46613
# 61497
# 76763
# 94733
# 112927
# 125581
# 139462
# 161552
# 170276
#
# Disc length: 2690 seconds
# Revision: 0
# Processed by: cddbd v1.5.2PL0 Copyright (c) Steve Scherf et al.
# Submitted via: VisiTrax 2.10.2.252 - For more info visit www.synapsa.com
#
DISCID=910a800c
DTITLE=Blues Connection - Studiobesok
DYEAR=2008
DGENRE=Blues
TTITLE0=Kokat kaffe
TTITLE1=Alltid likadant
TTITLE2=Lat mans blues
TTITLE3=Skeppsbrott
TTITLE4=Din Man
TTITLE5=Dreaming
TTITLE6=Bossanova blues
TTITLE7=Loserns blues
TTITLE8=Stanna kvar hos mej
TTITLE9=You*re the reason
TTITLE10=Paltt mage , ge mej muslin
TTITLE11=OCD blues
EXTD=
EXTT0=
EXTT1=
EXTT2=
EXTT3=
EXTT4=
EXTT5=
EXTT6=
EXTT7=
EXTT8=
EXTT9=
EXTT10=
EXTT11=
PLAYORDER=
